<?xml version="1.0" encoding="utf-8"?>
<!-- Generator: Adobe Illustrator 16.0.0, SVG Export Plug-In . SVG Version: 6.00 Build 0)  -->
<!DOCTYPE svg PUBLIC "-//W3C//DTD SVG 1.1//EN" "http://www.w3.org/Graphics/SVG/1.1/DTD/svg11.dtd">
<svg version="1.1" id="Calque_1" xmlns="http://www.w3.org/2000/svg" xmlns:xlink="http://www.w3.org/1999/xlink" x="0px" y="0px"
	 width="512px" height="434.5px" viewBox="0 77.5 512 434.5" enable-background="new 0 77.5 512 434.5" xml:space="preserve">
<path fill="#ECEFF1" d="M288,335.594H32c-5.887,0-10.668,4.781-10.668,10.668v112.406C21.332,488.062,45.27,512,74.668,512h170.664
	c29.398,0,53.336-23.938,53.336-53.332V346.262C298.668,340.375,293.887,335.594,288,335.594z"/>
<path fill="#ECEFF1" d="M160,85.332C83.543,85.332,21.332,147.543,21.332,224v27.051c0,5.887,4.781,10.668,10.668,10.668h256
	c2.836,0,5.547-1.133,7.551-3.117c2.008-1.984,3.117-4.715,3.117-7.531V224C298.668,147.543,236.457,85.332,160,85.332z"/>
<path fill="#00BCD4" d="M266.668,234.668H53.332C23.938,234.668,0,258.602,0,288v21.332c0,29.398,23.938,53.336,53.332,53.336
	h213.336c29.395,0,53.332-23.938,53.332-53.336V288C320,258.602,296.062,234.668,266.668,234.668z"/>
<path fill="#FFFFFF" d="M136.469,274.516c7.445,22.359-4.629,46.531-26.984,53.977c-22.359,7.445-46.531-4.629-53.977-26.988
	c-7.445-22.355,4.629-46.527,26.988-53.973L136.469,274.516z"/>
<path fill="#FFFFFF" d="M183.531,274.516c-7.445,22.359,4.629,46.531,26.984,53.977c22.359,7.445,46.531-4.629,53.977-26.988
	c7.445-22.355-4.629-46.527-26.988-53.973L183.531,274.516z"/>
<path fill="#FAFAFA" d="M213.332,394.668H106.668c-17.664,0-32,14.336-32,32s14.336,32,32,32h106.664c17.664,0,32-14.336,32-32
	S230.996,394.668,213.332,394.668z"/>
<path d="M245.332,512H74.668c-29.398,0-53.336-23.938-53.336-53.332V346.262c0-5.887,4.781-10.668,10.668-10.668
	s10.668,4.781,10.668,10.668v112.406c0,17.641,14.355,32,32,32h170.664c17.645,0,32-14.359,32-32V346.262
	c0-5.887,4.781-10.668,10.668-10.668s10.668,4.781,10.668,10.668v112.406C298.668,488.062,274.73,512,245.332,512z"/>
<path d="M288,261.738c-5.887,0-10.668-4.777-10.668-10.668V224c0-64.703-52.629-117.332-117.332-117.332S42.668,159.297,42.668,224
	v27.051c0,5.887-4.781,10.668-10.668,10.668s-10.668-4.781-10.668-10.668V224c0-76.457,62.211-138.668,138.668-138.668
	S298.668,147.543,298.668,224v27.07C298.668,256.961,293.887,261.738,288,261.738z"/>
<path d="M266.668,362.668H53.332C23.938,362.668,0,338.73,0,309.332V288c0-29.398,23.938-53.332,53.332-53.332h213.336
	C296.062,234.668,320,258.602,320,288v21.332C320,338.73,296.062,362.668,266.668,362.668z M53.332,256c-17.641,0-32,14.355-32,32
	v21.332c0,17.645,14.359,32,32,32h213.336c17.641,0,32-14.355,32-32V288c0-17.645-14.359-32-32-32H53.332z"/>
<path d="M96.043,341.332c-22.336,0-43.199-14.145-50.645-36.457c-9.301-27.906,5.824-58.156,33.727-67.457
	c2.688-0.895,5.609-0.684,8.148,0.578l53.973,26.984c2.539,1.281,4.461,3.5,5.336,6.168c9.301,27.902-5.824,58.152-33.73,67.453
	C107.285,340.457,101.633,341.332,96.043,341.332z M82.027,259.199c-14.23,6.914-21.527,23.512-16.406,38.914
	c5.59,16.746,23.746,25.832,40.469,20.242c15.402-5.141,24.32-20.906,21.312-36.434L82.027,259.199z"/>
<path d="M223.98,341.332c-5.57,0-11.246-0.875-16.832-2.73c-27.906-9.301-43.031-39.551-33.73-67.453
	c0.898-2.668,2.816-4.887,5.336-6.168l53.973-26.984c2.539-1.262,5.461-1.496,8.148-0.578c27.902,9.301,43.027,39.551,33.727,67.457
	C267.156,327.188,246.293,341.332,223.98,341.332z M192.598,281.898c-3.031,15.531,5.887,31.316,21.312,36.457
	c8.105,2.691,16.766,2.094,24.426-1.746c7.637-3.84,13.332-10.391,16.043-18.52c5.121-15.402-2.156-32-16.406-38.91L192.598,281.898
	z"/>
<path fill="#FFFFFF" d="M213.332,394.668H106.668c-17.664,0-32,14.336-32,32s14.336,32,32,32h106.664c17.664,0,32-14.336,32-32
	S230.996,394.668,213.332,394.668z"/>
<path d="M213.332,469.332H106.668C83.137,469.332,64,450.199,64,426.668S83.137,384,106.668,384h106.664
	C236.863,384,256,403.137,256,426.668S236.863,469.332,213.332,469.332z M106.668,405.332c-11.758,0-21.336,9.578-21.336,21.336
	c0,11.754,9.578,21.332,21.336,21.332h106.664c11.758,0,21.336-9.578,21.336-21.332c0-11.758-9.578-21.336-21.336-21.336H106.668z"
	/>
<path d="M117.332,469.332c-5.887,0-10.664-4.777-10.664-10.664v-64c0-5.891,4.777-10.668,10.664-10.668
	c5.891,0,10.668,4.777,10.668,10.668v64C128,464.555,123.223,469.332,117.332,469.332z"/>
<path d="M160,469.332c-5.887,0-10.668-4.777-10.668-10.664v-64c0-5.891,4.781-10.668,10.668-10.668s10.668,4.777,10.668,10.668v64
	C170.668,464.555,165.887,469.332,160,469.332z"/>
<path d="M202.668,469.332c-5.891,0-10.668-4.777-10.668-10.664v-64c0-5.891,4.777-10.668,10.668-10.668
	c5.887,0,10.664,4.777,10.664,10.668v64C213.332,464.555,208.555,469.332,202.668,469.332z"/>
<path d="M106.668,288c0,5.891-4.777,10.668-10.668,10.668S85.332,293.891,85.332,288S90.109,277.332,96,277.332
	S106.668,282.109,106.668,288z"/>
<path d="M234.668,288c0,5.891-4.777,10.668-10.668,10.668s-10.668-4.777-10.668-10.668s4.777-10.668,10.668-10.668
	S234.668,282.109,234.668,288z"/>
</svg>
